<svg width="1440" height="292" viewBox="0 0 1440 292" fill="none" xmlns="http://www.w3.org/2000/svg">
<g filter="url(#filter0_f)">
<path fill-rule="evenodd" clip-rule="evenodd" d="M1440 183.528L1399.58 208.168C1359.17 232.809 1278.33 281.24 1197.5 287.187C1116.67 293.985 1035.83 256.599 955 232.809C874.167 208.168 793.333 195.423 712.5 208.168C631.667 220.064 550.833 256.599 470 269.344C389.167 281.24 308.333 269.344 227.5 226.011C146.667 183.528 65.8334 110.457 25.4167 73.0713L-15 36.5356V0H25.4167C65.8334 0 146.667 0 227.5 0C308.333 0 389.167 0 470 0C550.833 0 631.667 0 712.5 0C793.333 0 874.167 0 955 0C1035.83 0 1116.67 0 1197.5 0C1278.33 0 1359.17 0 1399.58 0H1440V183.528Z" fill="#0092CA" fill-opacity="0.5"/>
<path fill-rule="evenodd" clip-rule="evenodd" d="M1440 183.528L1399.58 208.168C1359.17 232.809 1278.33 281.24 1197.5 287.187C1116.67 293.985 1035.83 256.599 955 232.809C874.167 208.168 793.333 195.423 712.5 208.168C631.667 220.064 550.833 256.599 470 269.344C389.167 281.24 308.333 269.344 227.5 226.011C146.667 183.528 65.8334 110.457 25.4167 73.0713L-15 36.5356V0H25.4167C65.8334 0 146.667 0 227.5 0C308.333 0 389.167 0 470 0C550.833 0 631.667 0 712.5 0C793.333 0 874.167 0 955 0C1035.83 0 1116.67 0 1197.5 0C1278.33 0 1359.17 0 1399.58 0H1440V183.528Z" stroke="white"/>
</g>
<defs>
<filter id="filter0_f" x="-19" y="-4" width="1463" height="296" filterUnits="userSpaceOnUse" color-interpolation-filters="sRGB">
<feFlood flood-opacity="0" result="BackgroundImageFix"/>
<feBlend mode="normal" in="SourceGraphic" in2="BackgroundImageFix" result="shape"/>
</filter>
</defs>
</svg>
